HIERARCHY
ROOT Hips
{
 OFFSET 0.000000 0.000000 0.000000
 CHANNELS 6 Xposition Yposition Zposition Yrotation Xrotation Zrotation
 JOINT Chest
 {
  OFFSET 0.000000 9.585900 0.002600
  CHANNELS 3 Yrotation Xrotation Zrotation
  JOINT Chest2
  {
   OFFSET 0.000000 9.601200 -0.005300
   CHANNELS 3 Yrotation Xrotation Zrotation
   JOINT Chest3
   {
    OFFSET 0.000000 9.561800 0.000000
    CHANNELS 3 Yrotation Xrotation Zrotation
    JOINT Chest4
    {
     OFFSET 0.000000 9.552100 0.000000
     CHANNELS 3 Yrotation Xrotation Zrotation
     JOINT Neck
     {
      OFFSET 0.000000 14.453000 0.000000
      CHANNELS 3 Yrotation Xrotation Zrotation
      JOINT Head
      {
       OFFSET 0.000000 8.936500 -0.011300
       CHANNELS 3 Yrotation Xrotation Zrotation
       End Site
       {
        OFFSET 0.000000 17.073600 -0.006000
       }
      }
     }
     JOINT RightCollar
     {
      OFFSET -2.921100 9.558500 0.000000
      CHANNELS 3 Yrotation Xrotation Zrotation
      JOINT RightShoulder
      {
       OFFSET -13.519700 0.000000 0.000000
       CHANNELS 3 Yrotation Xrotation Zrotation
       JOINT RightElbow
       {
        OFFSET 0.000000 -29.696600 0.000000
        CHANNELS 3 Yrotation Xrotation Zrotation
        JOINT RightWrist
        {
         OFFSET 0.000000 -24.004700 0.000000
         CHANNELS 3 Yrotation Xrotation Zrotation
         End Site
         {
          OFFSET 0.000000 -17.728500 0.000000
         }
        }
       }
      }
     }
     JOINT LeftCollar
     {
      OFFSET 2.921100 9.558500 0.000000
      CHANNELS 3 Yrotation Xrotation Zrotation
      JOINT LeftShoulder
      {
       OFFSET 13.519700 0.000000 0.000000
       CHANNELS 3 Yrotation Xrotation Zrotation
       JOINT LeftElbow
       {
        OFFSET 0.000000 -29.696600 0.000000
        CHANNELS 3 Yrotation Xrotation Zrotation
        JOINT LeftWrist
        {
         OFFSET 0.000000 -24.004700 0.000000
         CHANNELS 3 Yrotation Xrotation Zrotation
         End Site
         {
          OFFSET 0.000000 -17.728500 0.000000
         }
        }
       }
      }
     }
    }
   }
  }
 }
 JOINT RightHip
 {
  OFFSET -7.771700 -0.012900 -0.001300
  CHANNELS 3 Yrotation Xrotation Zrotation
  JOINT RightKnee
  {
   OFFSET 0.000000 -40.869800 0.001200
   CHANNELS 3 Yrotation Xrotation Zrotation
   JOINT RightAnkle
   {
    OFFSET 0.000000 -39.717900 0.002100
    CHANNELS 3 Yrotation Xrotation Zrotation
    JOINT RightToe
    {
     OFFSET 0.000000 -4.965400 11.033500
     CHANNELS 3 Yrotation Xrotation Zrotation
     End Site
     {
      OFFSET 0.000000 -1.423100 5.872300
     }
    }
   }
  }
 }
 JOINT LeftHip
 {
  OFFSET 7.771700 -0.012900 -0.001300
  CHANNELS 3 Yrotation Xrotation Zrotation
  JOINT LeftKnee
  {
   OFFSET 0.000000 -40.869800 0.001200
   CHANNELS 3 Yrotation Xrotation Zrotation
   JOINT LeftAnkle
   {
    OFFSET 0.000000 -39.717900 0.002100
    CHANNELS 3 Yrotation Xrotation Zrotation
    JOINT LeftToe
    {
     OFFSET 0.000000 -4.965400 11.033500
     CHANNELS 3 Yrotation Xrotation Zrotation
     End Site
     {
      OFFSET 0.000000 -1.423100 5.872300
     }
    }
   }
  }
 }
}
MOTION
Frames: 13
Frame Time: 0.008333
0.000000 85.388000 0.000000 0.000000 -5.767877 0.000000 0.000000 11.653817 0.000000 0.000000 -5.885947 0.000000 0.000000 -0.000000 0.000000 0.000000 -0.000000 0.000000 0.000000 12.528835 0.000000 0.000000 0.711642 0.000000 0.000000 -0.000000 0.000000 0.000000 0.000000 -90.000000 0.000000 -2.309062 0.000000 0.000000 2.309062 0.000000 0.000000 -0.000000 0.000000 0.000000 -0.000000 90.000000 0.000000 -2.309062 0.000000 0.000000 2.309062 0.000000 0.000000 8.520406 0.000000 0.000000 1.905762 0.000000 -0.000000 -4.658285 0.000000 0.000000 -0.000000 0.000000 0.000000 8.520406 0.000000 0.000000 1.905762 0.000000 -0.000000 -4.658285 0.000000 0.000000 -0.000000 0.000000
-121.800704 58.010256 102.273723 177.744359 -31.994661 -1.104827 2.322975 20.184748 2.635223 0.202329 2.537090 0.243186 0.363921 4.176919 0.418435 1.767870 17.335464 1.960718 -2.470136 17.099920 2.544741 -5.374516 -3.878070 5.475913 3.156470 -3.108587 -0.368700 12.863412 -16.634167 -22.629782 151.100639 -71.454504 -107.777920 21.125624 -14.279925 -51.317444 -7.253636 -4.536685 -2.835218 -3.030680 -11.875217 7.804076 37.165727 -37.286914 -87.376602 4.634153 -10.281951 -1.251940 8.051704 -42.674381 -6.076833 -9.417156 67.465215 -9.691101 6.265533 22.718387 6.827459 -0.447174 -15.780634 1.649641 -5.752508 -40.787811 1.526029 24.832537 64.889417 22.039876 -16.917655 5.963553 -2.270145 0.029741 -0.088581 0.007823
-121.795489 58.011486 102.271281 177.770660 -31.986993 -1.096703 2.303112 20.185598 2.621580 0.220353 2.552745 0.252328 0.351327 4.167716 0.409971 1.754253 17.329184 1.954429 -2.455670 17.089626 2.527186 -5.355803 -3.914520 5.449493 3.158112 -3.115578 -0.367658 12.904059 -16.617951 -22.654797 151.102068 -71.472644 -107.808093 21.132148 -14.279588 -51.327119 -7.247976 -4.539601 -2.835194 -3.024214 -11.859950 7.790198 37.173064 -37.284260 -87.379038 4.618539 -10.273300 -1.251162 8.063076 -42.678921 -6.080703 -9.416772 67.479712 -9.731695 6.257170 22.684919 6.878621 -0.443161 -15.766058 1.636452 -5.766199 -40.789188 1.525150 24.806960 64.887054 21.995083 -16.922566 5.954971 -2.272611 0.035700 -0.079605 0.015278
-121.793117 58.013021 102.268269 177.808946 -31.979943 -1.078165 2.259221 20.182855 2.583133 0.223413 2.555702 0.254004 0.360119 4.180278 0.414847 1.739351 17.318783 1.945389 -2.443530 17.078647 2.510280 -5.351896 -3.929248 5.446681 3.173364 -3.112650 -0.370880 12.912982 -16.614861 -22.665181 151.095332 -71.475857 -107.824342 21.121228 -14.282488 -51.321251 -7.216467 -4.517998 -2.848741 -3.044782 -11.867139 7.793333 37.185829 -37.273154 -87.386006 4.601611 -10.266336 -1.239245 8.082493 -42.678980 -6.121862 -9.418457 67.492942 -9.756825 6.251147 22.660155 6.913877 -0.434897 -15.757984 1.626381 -5.767062 -40.797267 1.480165 24.801431 64.884429 21.986941 -16.916536 5.960260 -2.267810 0.028409 -0.083740 0.011118
-121.788558 58.014517 102.265668 177.829904 -31.970783 -1.068619 2.249388 20.183950 2.574611 0.215169 2.551455 0.249394 0.358620 4.181228 0.414104 1.731733 17.329737 1.940277 -2.431493 17.060110 2.496219 -5.344031 -3.945989 5.441852 3.193389 -3.118021 -0.375059 12.918205 -16.610765 -22.672920 151.131689 -71.493599 -107.856207 21.099567 -14.264691 -51.316675 -7.197676 -4.517877 -2.852973 -3.049598 -11.844305 7.778176 37.194132 -37.296622 -87.396037 4.603349 -10.266498 -1.223212 8.090597 -42.683360 -6.146910 -9.423038 67.498271 -9.767219 6.257388 22.646516 6.930665 -0.429546 -15.753305 1.616798 -5.774824 -40.804560 1.471116 24.804712 64.882490 21.978874 -16.928665 5.960409 -2.265842 0.023575 -0.087152 0.010140
-121.787486 58.016410 102.262393 177.871240 -31.966439 -1.057058 2.228243 20.200320 2.560613 0.200735 2.545586 0.241429 0.357081 4.183925 0.413118 1.724045 17.335301 1.934850 -2.408117 17.041356 2.463518 -5.304564 -4.012919 5.395226 3.206448 -3.126804 -0.379255 12.919355 -16.609607 -22.676546 151.201037 -71.541505 -107.894071 21.149089 -14.241707 -51.348241 -7.184327 -4.520814 -2.854047 -3.061756 -11.847876 7.777113 37.197026 -37.304998 -87.400744 4.610880 -10.261722 -1.206634 8.120983 -42.676417 -6.178179 -9.349925 67.519680 -9.745694 6.254028 22.586704 7.017507 -0.462338 -15.723847 1.602655 -5.791603 -40.809672 1.453004 24.794350 64.882118 21.950463 -16.950692 5.967850 -2.272451 0.039886 -0.097734 0.018636
-121.786466 58.017833 102.260058 177.910147 -31.958459 -1.053526 2.190864 20.196212 2.538742 0.218340 2.561544 0.250113 0.359669 4.195703 0.412824 1.698978 17.325249 1.924085 -2.397417 17.023298 2.448084 -5.279851 -4.050711 5.366993 3.208428 -3.130169 -0.379737 12.924561 -16.616607 -22.681133 151.225409 -71.557882 -107.908805 21.140727 -14.226263 -51.339321 -7.175130 -4.521862 -2.855649 -3.074118 -11.859289 7.781185 37.207041 -37.288675 -87.402177 4.618113 -10.244393 -1.200344 8.211890 -42.669235 -6.226352 -9.385238 67.529067 -9.784455 6.217696 22.553124 7.075933 -0.454358 -15.707707 1.600619 -5.810196 -40.817308 1.436856 24.814923 64.873160 21.954319 -16.966324 5.977432 -2.266376 0.036287 -0.104595 0.017424
-121.789337 58.019015 102.257951 177.949645 -31.951483 -1.036210 2.156801 20.202462 2.507329 0.211588 2.556606 0.247299 0.365611 4.204624 0.413965 1.691729 17.347810 1.916011 -2.392824 16.986432 2.447670 -5.276660 -4.060167 5.365268 3.209199 -3.155830 -0.381104 12.921490 -16.627680 -22.678521 151.235916 -71.572211 -107.910487 21.092094 -14.219484 -51.308461 -7.171100 -4.539834 -2.851152 -3.083027 -11.871117 7.788218 37.214176 -37.274271 -87.408817 4.606250 -10.238879 -1.197596 8.300843 -42.661018 -6.292694 -9.400028 67.536557 -9.802389 6.153651 22.538743 7.101147 -0.422865 -15.702699 1.613035 -5.818422 -40.824290 1.402555 24.810306 64.872901 21.939716 -16.976846 5.958421 -2.269487 0.042474 -0.089482 0.020738
-121.787241 58.020321 102.256019 177.959539 -31.949664 -1.040833 2.168168 20.209881 2.519192 0.209824 2.558616 0.246908 0.358544 4.208815 0.411570 1.681920 17.337080 1.913326 -2.387521 16.982103 2.439811 -5.248389 -4.097359 5.327433 3.221977 -3.145493 -0.385835 12.912368 -16.631425 -22.675869 151.250774 -71.577557 -107.923172 21.092146 -14.206342 -51.302837 -7.167878 -4.535324 -2.853363 -3.087477 -11.865852 7.794789 37.222669 -37.242557 -87.419236 4.590724 -10.234553 -1.214847 8.367007 -42.655300 -6.307320 -9.458815 67.537446 -9.850907 6.139234 22.525020 7.130097 -0.382673 -15.696796 1.606554 -5.829774 -40.823327 1.411785 24.811511 64.872940 21.933782 -16.978179 5.954165 -2.266183 0.041460 -0.089971 0.019361
-121.787257 58.020249 102.256055 177.979149 -31.937641 -1.044854 2.172184 20.222755 2.526795 0.197544 2.547595 0.242977 0.353972 4.202761 0.409789 1.681919 17.349488 1.910723 -2.377593 16.962541 2.425545 -5.226495 -4.135409 5.298870 3.226862 -3.151072 -0.386760 12.902775 -16.635430 -22.672928 151.271747 -71.578299 -107.938746 21.095008 -14.191000 -51.298577 -7.168107 -4.546419 -2.850522 -3.087684 -11.862917 7.800217 37.227249 -37.234101 -87.432340 4.583827 -10.232005 -1.229030 8.412345 -42.661302 -6.325764 -9.486956 67.539940 -9.879370 6.127998 22.511558 7.159586 -0.370153 -15.690137 1.605260 -5.843088 -40.835148 1.411169 24.808119 64.868480 21.927442 -16.983024 5.958415 -2.268032 0.044131 -0.093183 0.020045
-121.794450 58.019000 102.257375 178.030729 -31.918155 -1.028377 2.123103 20.218450 2.488604 0.205539 2.559312 0.244867 0.340059 4.186048 0.404041 1.677946 17.363420 1.907930 -2.366702 16.943282 2.410815 -5.173837 -4.203362 5.226139 3.233526 -3.148339 -0.383509 12.894037 -16.646322 -22.673401 151.275172 -71.565926 -107.942585 21.086742 -14.178184 -51.293905 -7.151921 -4.533758 -2.850312 -3.096820 -11.864971 7.810198 37.240554 -37.250316 -87.463532 4.583958 -10.229137 -1.243384 8.428972 -42.673625 -6.371803 -9.298046 67.562268 -9.763520 6.098047 22.484942 7.256104 -0.398545 -15.683962 1.587271 -5.849434 -40.858626 1.357535 24.799104 64.855251 21.914687 -16.990334 5.975022 -2.271863 0.049534 -0.098599 0.023793
-121.796982 58.018035 102.258369 178.052500 -31.906679 -1.028154 2.105089 20.214250 2.480459 0.203246 2.556384 0.243444 0.345940 4.198910 0.408796 1.671743 17.366630 1.907601 -2.346182 16.916569 2.375158 -5.191116 -4.204357 5.249892 3.232243 -3.153815 -0.388937 12.888497 -16.647959 -22.660668 151.269392 -71.553474 -107.927549 21.084998 -14.158185 -51.300258 -7.151071 -4.535963 -2.852203 -3.102993 -11.867938 7.811566 37.247931 -37.245666 -87.480971 4.568649 -10.232256 -1.241218 8.500185 -42.676085 -6.393508 -9.290876 67.563442 -9.776658 6.064099 22.477492 7.317350 -0.406048 -15.681565 1.588565 -5.855495 -40.871635 1.343808 24.795000 64.850943 21.907252 -16.984415 5.980802 -2.266637 0.043831 -0.100202 0.022621
-121.796416 58.017064 102.259392 178.066487 -31.899028 -1.045856 2.101387 20.212636 2.495618 0.206317 2.563964 0.246263 0.344082 4.200694 0.408713 1.663841 17.370325 1.906215 -2.332749 16.888487 2.355486 -5.144029 -4.293423 5.167719 3.236024 -3.156701 -0.392710 12.884408 -16.652169 -22.657502 151.304478 -71.551273 -107.952159 21.088183 -14.133924 -51.307050 -7.148552 -4.546649 -2.853607 -3.108279 -11.860584 7.813744 37.253052 -37.246561 -87.490930 4.562922 -10.232566 -1.257767 8.613560 -42.676978 -6.403432 -9.488460 67.555824 -9.939047 6.015993 22.483928 7.328608 -0.354573 -15.684442 1.606019 -5.873191 -40.878000 1.359363 24.789186 64.848619 21.896343 -16.970403 5.980736 -2.254309 0.029369 -0.095594 0.017618
